<svg width="32" height="32" viewBox="0 0 32 32" fill="none" xmlns="http://www.w3.org/2000/svg">
<path d="M31 16.4998C31.0001 15.1751 30.6243 13.8775 29.9162 12.7579C29.2081 11.6382 28.1969 10.7425 27 10.1748V8.99978C26.9991 7.7112 26.5834 6.45714 25.8144 5.42318C25.0454 4.38922 23.9639 3.63031 22.7301 3.25875C21.4962 2.88719 20.1755 2.92273 18.9635 3.36011C17.7514 3.79749 16.7123 4.61346 16 5.68728C15.2877 4.61346 14.2486 3.79749 13.0366 3.36011C11.8245 2.92273 10.5038 2.88719 9.26992 3.25875C8.03607 3.63031 6.95462 4.38922 6.18561 5.42318C5.41659 6.45714 5.00089 7.7112 5 8.99978V10.1748C3.80292 10.7424 2.79149 11.6381 2.08326 12.7577C1.37502 13.8773 0.999062 15.175 0.999062 16.4998C0.999062 17.8246 1.37502 19.1222 2.08326 20.2419C2.79149 21.3615 3.80292 22.2572 5 22.8248V22.9998C5.00089 24.2884 5.41659 25.5424 6.18561 26.5764C6.95462 27.6103 8.03607 28.3693 9.26992 28.7408C10.5038 29.1124 11.8245 29.0768 13.0366 28.6395C14.2486 28.2021 15.2877 27.3861 16 26.3123C16.7123 27.3861 17.7514 28.2021 18.9635 28.6395C20.1755 29.0768 21.4962 29.1124 22.7301 28.7408C23.9639 28.3693 25.0454 27.6103 25.8144 26.5764C26.5834 25.5424 26.9991 24.2884 27 22.9998V22.8248C28.196 22.2558 29.2064 21.3598 29.9143 20.2405C30.6222 19.1211 30.9986 17.8242 31 16.4998ZM11 26.9998C10.0131 26.9992 9.0613 26.6338 8.32753 25.9739C7.59377 25.314 7.12986 24.4061 7.025 23.4248C7.3475 23.4756 7.67353 23.5007 8 23.4998H9C9.26522 23.4998 9.51957 23.3944 9.70711 23.2069C9.89464 23.0194 10 22.765 10 22.4998C10 22.2346 9.89464 21.9802 9.70711 21.7927C9.51957 21.6051 9.26522 21.4998 9 21.4998H8C6.82165 21.4978 5.68187 21.0797 4.78175 20.3192C3.88162 19.5588 3.279 18.5048 3.08019 17.3434C2.88138 16.1819 3.09916 14.9876 3.69512 13.971C4.29107 12.9545 5.2269 12.1811 6.3375 11.7873C6.53183 11.7157 6.69954 11.5862 6.818 11.4164C6.93646 11.2465 6.99998 11.0444 7 10.8373V8.99978C7 7.93892 7.42143 6.9215 8.17157 6.17136C8.92172 5.42121 9.93914 4.99978 11 4.99978C12.0609 4.99978 13.0783 5.42121 13.8284 6.17136C14.5786 6.9215 15 7.93892 15 8.99978V18.5373C13.9052 17.5437 12.4785 16.9953 11 16.9998C10.7348 16.9998 10.4804 17.1051 10.2929 17.2927C10.1054 17.4802 10 17.7346 10 17.9998C10 18.265 10.1054 18.5194 10.2929 18.7069C10.4804 18.8944 10.7348 18.9998 11 18.9998C12.0609 18.9998 13.0783 19.4212 13.8284 20.1714C14.5786 20.9215 15 21.9389 15 22.9998C15 24.0607 14.5786 25.0781 13.8284 25.8282C13.0783 26.5784 12.0609 26.9998 11 26.9998ZM24 21.4998H23C22.7348 21.4998 22.4804 21.6051 22.2929 21.7927C22.1054 21.9802 22 22.2346 22 22.4998C22 22.765 22.1054 23.0194 22.2929 23.2069C22.4804 23.3944 22.7348 23.4998 23 23.4998H24C24.3265 23.5007 24.6525 23.4756 24.975 23.4248C24.8929 24.1935 24.5897 24.922 24.1022 25.522C23.6147 26.122 22.9638 26.568 22.2282 26.8058C21.4926 27.0436 20.7038 27.0632 19.9573 26.8621C19.2108 26.6611 18.5386 26.248 18.022 25.6729C17.5053 25.0977 17.1664 24.3852 17.0463 23.6215C16.9261 22.8578 17.0298 22.0756 17.3449 21.3696C17.66 20.6637 18.1729 20.0641 18.8215 19.6435C19.4702 19.2229 20.2269 18.9993 21 18.9998C21.2652 18.9998 21.5196 18.8944 21.7071 18.7069C21.8946 18.5194 22 18.265 22 17.9998C22 17.7346 21.8946 17.4802 21.7071 17.2927C21.5196 17.1051 21.2652 16.9998 21 16.9998C19.5215 16.9953 18.0948 17.5437 17 18.5373V8.99978C17 7.93892 17.4214 6.9215 18.1716 6.17136C18.9217 5.42121 19.9391 4.99978 21 4.99978C22.0609 4.99978 23.0783 5.42121 23.8284 6.17136C24.5786 6.9215 25 7.93892 25 8.99978V10.8373C25 11.0444 25.0635 11.2465 25.182 11.4164C25.3005 11.5862 25.4682 11.7157 25.6625 11.7873C26.7731 12.1811 27.7089 12.9545 28.3049 13.971C28.9008 14.9876 29.1186 16.1819 28.9198 17.3434C28.721 18.5048 28.1184 19.5588 27.2183 20.3192C26.3181 21.0797 25.1784 21.4978 24 21.4998ZM7.5 15.9998C7.23478 15.9998 6.98043 15.8944 6.79289 15.7069C6.60536 15.5194 6.5 15.265 6.5 14.9998C6.5 14.7346 6.60536 14.4802 6.79289 14.2927C6.98043 14.1051 7.23478 13.9998 7.5 13.9998C8.16203 13.9965 8.79601 13.7321 9.26414 13.2639C9.73227 12.7958 9.99672 12.1618 10 11.4998V10.4998C10 10.2346 10.1054 9.98021 10.2929 9.79268C10.4804 9.60514 10.7348 9.49978 11 9.49978C11.2652 9.49978 11.5196 9.60514 11.7071 9.79268C11.8946 9.98021 12 10.2346 12 10.4998V11.4998C12 12.6933 11.5259 13.8379 10.682 14.6818C9.83807 15.5257 8.69348 15.9998 7.5 15.9998ZM25.5 14.9998C25.5 15.265 25.3946 15.5194 25.2071 15.7069C25.0196 15.8944 24.7652 15.9998 24.5 15.9998C23.3065 15.9998 22.1619 15.5257 21.318 14.6818C20.4741 13.8379 20 12.6933 20 11.4998V10.4998C20 10.2346 20.1054 9.98021 20.2929 9.79268C20.4804 9.60514 20.7348 9.49978 21 9.49978C21.2652 9.49978 21.5196 9.60514 21.7071 9.79268C21.8946 9.98021 22 10.2346 22 10.4998V11.4998C22.0033 12.1618 22.2677 12.7958 22.7359 13.2639C23.204 13.7321 23.838 13.9965 24.5 13.9998C24.7652 13.9998 25.0196 14.1051 25.2071 14.2927C25.3946 14.4802 25.5 14.7346 25.5 14.9998Z" fill="#471515"/>
</svg>
