<svg width="24" height="24" viewBox="0 0 24 24" fill="none" xmlns="http://www.w3.org/2000/svg">
<path d="M20.25 3.75H3.75C3.35218 3.75 2.97064 3.90804 2.68934 4.18934C2.40804 4.47064 2.25 4.85218 2.25 5.25V18.75C2.25 19.1478 2.40804 19.5294 2.68934 19.8107C2.97064 20.092 3.35218 20.25 3.75 20.25H20.25C20.6478 20.25 21.0294 20.092 21.3107 19.8107C21.592 19.5294 21.75 19.1478 21.75 18.75V5.25C21.75 4.85218 21.592 4.47064 21.3107 4.18934C21.0294 3.90804 20.6478 3.75 20.25 3.75ZM17.25 12.75C17.25 12.9489 17.171 13.1397 17.0303 13.2803C16.8897 13.421 16.6989 13.5 16.5 13.5H9.30938L10.2844 14.4656C10.4252 14.6078 10.5042 14.7999 10.5042 15C10.5042 15.2001 10.4252 15.3922 10.2844 15.5344C10.141 15.673 9.94941 15.7505 9.75 15.7505C9.55059 15.7505 9.35898 15.673 9.21563 15.5344L6.96563 13.2844C6.82479 13.1422 6.74578 12.9501 6.74578 12.75C6.74578 12.5499 6.82479 12.3578 6.96563 12.2156L9.21563 9.96563C9.36135 9.84603 9.54634 9.78491 9.73463 9.79416C9.92292 9.8034 10.101 9.88236 10.2343 10.0157C10.3676 10.149 10.4466 10.3271 10.4558 10.5154C10.4651 10.7037 10.404 10.8887 10.2844 11.0344L9.30938 12H15.75V9.75C15.75 9.55109 15.829 9.36032 15.9697 9.21967C16.1103 9.07902 16.3011 9 16.5 9C16.6989 9 16.8897 9.07902 17.0303 9.21967C17.171 9.36032 17.25 9.55109 17.25 9.75V12.75Z" fill="#471515"/>
</svg>
