<svg width="22" height="22" viewBox="0 0 22 22" fill="none" xmlns="http://www.w3.org/2000/svg">
<path d="M21.2656 8.77808C21.2423 8.67324 21.1968 8.57462 21.1321 8.4889C21.0674 8.40317 20.985 8.33235 20.8906 8.2812L18.6593 7.0437C18.5397 6.80117 18.4051 6.56633 18.2562 6.34058L18.3031 3.79058C18.3039 3.68362 18.2827 3.57764 18.2408 3.47924C18.1989 3.38085 18.1371 3.29215 18.0593 3.2187C16.9484 2.21142 15.6345 1.4538 14.2062 0.996827C14.1036 0.964844 13.9954 0.954992 13.8888 0.96792C13.7821 0.980849 13.6794 1.01626 13.5875 1.07183L11.4031 2.38433C11.1312 2.37495 10.8687 2.37495 10.5968 2.38433L8.41245 1.07183C8.32049 1.01626 8.21779 0.980849 8.11112 0.96792C8.00446 0.954992 7.89627 0.964844 7.7937 0.996827C6.36351 1.45415 5.04911 2.21529 3.94057 3.22808C3.86214 3.299 3.79981 3.3859 3.75777 3.48292C3.71572 3.57995 3.69494 3.68485 3.69682 3.79058L3.7437 6.34058C3.5937 6.56558 3.46245 6.79995 3.3312 7.0437L1.09995 8.2812C1.00688 8.33288 0.926037 8.40402 0.862941 8.48976C0.799846 8.57551 0.755977 8.67385 0.734324 8.77808C0.415544 10.2422 0.415544 11.7577 0.734324 13.2218C0.757611 13.3267 0.803143 13.4253 0.867839 13.511C0.932535 13.5967 1.01489 13.6676 1.10932 13.7187L3.34057 14.9562C3.46019 15.1987 3.59482 15.4336 3.7437 15.6593L3.69682 18.2093C3.69597 18.3163 3.71717 18.4223 3.75911 18.5207C3.80105 18.6191 3.86282 18.7078 3.94057 18.7812C5.05155 19.7885 6.3654 20.5461 7.7937 21.0031C7.89627 21.0351 8.00446 21.0449 8.11112 21.032C8.21779 21.0191 8.32049 20.9836 8.41245 20.9281L10.5968 19.6156H11.4031L13.5968 20.9281C13.7109 21.0031 13.8447 21.0422 13.9812 21.0406C14.0574 21.0373 14.133 21.0247 14.2062 21.0031C15.6364 20.5458 16.9508 19.7846 18.0593 18.7718C18.1378 18.7009 18.2001 18.614 18.2421 18.517C18.2842 18.42 18.305 18.3151 18.3031 18.2093L18.2562 15.6593C18.4062 15.4343 18.5375 15.2 18.6687 14.9562L20.9 13.7187C20.993 13.667 21.0739 13.5959 21.137 13.5101C21.2001 13.4244 21.2439 13.3261 21.2656 13.2218C21.5844 11.7577 21.5844 10.2422 21.2656 8.77808ZM11 15.125C10.1841 15.125 9.38658 14.883 8.70822 14.4298C8.02987 13.9765 7.50116 13.3323 7.18895 12.5785C6.87674 11.8248 6.79505 10.9954 6.95421 10.1952C7.11337 9.39503 7.50624 8.66003 8.08313 8.08314C8.66003 7.50625 9.39503 7.11338 10.1952 6.95421C10.9954 6.79505 11.8248 6.87674 12.5785 7.18895C13.3323 7.50116 13.9765 8.02987 14.4298 8.70823C14.883 9.38658 15.125 10.1841 15.125 11C15.125 12.094 14.6904 13.1432 13.9168 13.9168C13.1432 14.6904 12.094 15.125 11 15.125Z" fill="#471515"/>
</svg>
